<svg id="visual" viewBox="0 0 900 600" width="900" height="600" xmlns="http://www.w3.org/2000/svg" xmlns:xlink="http://www.w3.org/1999/xlink" version="1.1"><rect x="0" y="0" width="900" height="600" fill="#f5f5f5"></rect><path d="M0 234L129 234L129 203L257 203L257 301L386 301L386 260L514 260L514 317L643 317L643 222L771 222L771 300L900 300L900 246L900 601L900 601L771 601L771 601L643 601L643 601L514 601L514 601L386 601L386 601L257 601L257 601L129 601L129 601L0 601Z" fill="#0ea5e9"></path><path d="M0 331L129 331L129 383L257 383L257 392L386 392L386 280L514 280L514 296L643 296L643 379L771 379L771 393L900 393L900 305L900 601L900 601L771 601L771 601L643 601L643 601L514 601L514 601L386 601L386 601L257 601L257 601L129 601L129 601L0 601Z" fill="#0e90ca"></path><path d="M0 366L129 366L129 376L257 376L257 466L386 466L386 392L514 392L514 450L643 450L643 468L771 468L771 366L900 366L900 397L900 601L900 601L771 601L771 601L643 601L643 601L514 601L514 601L386 601L386 601L257 601L257 601L129 601L129 601L0 601Z" fill="#0e7bac"></path><path d="M0 477L129 477L129 500L257 500L257 490L386 490L386 482L514 482L514 540L643 540L643 508L771 508L771 547L900 547L900 508L900 601L900 601L771 601L771 601L643 601L643 601L514 601L514 601L386 601L386 601L257 601L257 601L129 601L129 601L0 601Z" fill="#10678f"></path></svg>